inDegrees=yes
name=ik_MT_01200627-000-000_orientations_updatedTime
DataType=double
version=3
OpenSimVersion=4.5-2024-07-10-f38669b70
endheader
time	pelvis_tilt	pelvis_list	pelvis_rotation	pelvis_tx	pelvis_ty	pelvis_tz	hip_flexion_r	hip_adduction_r	hip_rotation_r	knee_angle_r	knee_angle_r_beta	ankle_angle_r	subtalar_angle_r	mtp_angle_r	hip_flexion_l	hip_adduction_l	hip_rotation_l	knee_angle_l	knee_angle_l_beta	ankle_angle_l	subtalar_angle_l	mtp_angle_l	lumbar_extension	lumbar_bending	lumbar_rotation	arm_flex_r	arm_add_r	arm_rot_r	elbow_flex_r	pro_sup_r	wrist_flex_r	wrist_dev_r	arm_flex_l	arm_add_l	arm_rot_l	elbow_flex_l	pro_sup_l	wrist_flex_l	wrist_dev_l
1747398479.023803	-0.005094120981718187	-0.06088343842384652	72.44565091307238	0	0.9399999999999999	0	44.99998487161243	-9.999999988573329	0	59.99978650666745	1.047193825035014	-4.999999851047217	0	0	44.99998487161243	-9.999999988573329	0	59.99978650666745	1.047193825035014	-4.999999851047217	0	0	0.03954096532054434	-0.01367610749200083	0.01720587342386608	-0.418941458276207	-0.07899971548365317	-0.4167614451560203	0.5592709491427108	0.5256653022674157	0	0	-0.379657906873145	-0.1168816673217246	-0.4254560079683122	0.5813009819054997	0.5726234855368006	0	0
1747398479.033803	-0.006218461720385624	-0.03219961124197678	72.44928414004802	0	0.9399999999999999	0	44.99998562843743	-9.999999988573329	0	59.99980039666034	1.047194067461123	-4.999999851047217	0	0	44.99998562843743	-9.999999988573329	0	59.99980039666034	1.047194067461123	-4.999999851047217	0	0	0.0007849417503144901	-0.02391511993831349	0.01626254546259705	-0.4119654892365361	-0.08157622521347523	-0.4123199676184865	0.5680403872550093	0.5197904088884312	0	0	-0.3714360510707491	-0.116989744530607	-0.411154231801185	0.5857212127387282	0.5598591928779699	0	0
1747398479.043803	-0.01714319669958693	-0.08684335744939502	72.45055137617156	0	0.9399999999999999	0	44.99998632942205	-9.999999988573329	0	59.99981340727455	1.047194294539178	-4.999999851047217	0	0	44.99998632942205	-9.999999988573329	0	59.99981340727455	1.047194294539178	-4.999999851047217	0	0	0.09407453202389172	-0.02079147606720709	0.009060312171704971	-0.4430469807161967	-0.07543896669783638	-0.4032827879109006	0.5598132923068833	0.5163020264831026	0	0	-0.3998513211659876	-0.1168297480934638	-0.4251937428243644	0.5799672343548583	0.570395592622062	0	0
1747398479.053803	-0.005326033667614181	-0.05650273847883133	72.43924775589747	0	0.9399999999999999	0	44.99998704771307	-9.999999988573329	0	59.99982687996556	1.047194529681996	-4.999999851047217	0	0	44.99998704771307	-9.999999988573329	0	59.99982687996556	1.047194529681996	-4.999999851047217	0	0	0.03326260599730416	-0.01322697980142899	0.03456070696648321	-0.4191067332324045	-0.08149440090506474	-0.425083013202239	0.5636879361067785	0.5250905684384568	0	0	-0.3781672483730253	-0.1180787347392505	-0.413496463750536	0.5785256660249595	0.5713474636299676	0	0
1747398479.063803	-0.004925992056442052	-0.05692643257889961	72.44406469187035	0	0.9399999999999999	0	44.99998769521804	-9.999999988573329	0	59.99983915780889	1.047194743970787	-4.999999851047217	0	0	44.99998769521804	-9.999999988573329	0	59.99983915780889	1.047194743970787	-4.999999851047217	0	0	0.02882726959110655	-0.01505777708484563	0.01956154460667374	-0.4120063297148814	-0.0838315215400835	-0.4167247869425906	0.5591534092518998	0.5268748336274434	0	0	-0.3731623476519733	-0.1205758228110956	-0.4258191831525563	0.5777625525809136	0.5730711482922091	0	0
1747398479.073803	-0.006374898440907166	-0.05495866910657243	72.45068324248847	0	0.9399999999999999	0	44.99998835631614	-9.999999988573329	0	59.99985183071118	1.047194965154657	-4.999999851047217	0	0	44.99998835631614	-9.999999988573329	0	59.99985183071118	1.047194965154657	-4.999999851047217	0	0	0.03005514285751157	-0.01655264766584764	0.01674918328854859	-0.4167590192938956	-0.08359243618905225	-0.4196702773781111	0.565981811120994	0.5267885640923949	0	0	-0.3734926061741836	-0.1171357640546796	-0.4177482836167719	0.5802588816281163	0.5695810039806419	0	0
1747398479.083803	-0.009415457615371815	-0.06002967059902382	72.44932462343738	0	0.9399999999999999	0	44.99998894586159	-9.999999988573329	0	59.99986326775036	1.047195164768648	-4.999999851047217	0	0	44.99998894586159	-9.999999988573329	0	59.99986326775036	1.047195164768648	-4.999999851047217	0	0	0.03752718594455585	-0.01663743261291236	0.01651605463873262	-0.4119826223845625	-0.08000939610426433	-0.4152266000284386	0.5600171724078292	0.524482492960135	0	0	-0.3751446702488466	-0.1175799716770215	-0.4210896860141779	0.5775242534187662	0.5752452660528375	0	0
1747398479.093803	-0.01277337359964621	-0.1052298900904819	72.42154192624088	0	0.9399999999999999	0	44.99998949570062	-9.999999988573329	0	59.99987405553385	1.047195353050989	-4.999999851047217	0	0	44.99998949570062	-9.999999988573329	0	59.99987405553385	1.047195353050989	-4.999999851047217	0	0	0.1165858874666714	-0.01253385048571423	0.0218628075708397	-0.7881437885023741	-0.1740655702625322	-0.7364608911428473	1.067785287737489	1.040763440052717	0	0	-0.7441108864537154	-0.2254744124663619	-0.7979792301378998	1.098115921111246	1.08423906664712	0	0
1747398479.103803	-0.005438591659957341	-0.05742597084548132	72.44489652392586	0	0.9399999999999999	0	44.99999003548469	-9.999999988573329	0	59.99988478020244	1.047195540231767	-4.999999851047217	0	0	44.99999003548469	-9.999999988573329	0	59.99988478020244	1.047195540231767	-4.999999851047217	0	0	0.0376393421928873	-0.01009722960056113	0.0210993525027841	-0.4138634958774575	-0.08581043211696504	-0.4140295113042796	0.5592935941779428	0.5243577835257928	0	0	-0.3749319159951328	-0.112348636911008	-0.4255974238304159	0.5775710879310196	0.5757965498333941	0	0
1747398479.113803	-0.008927732264429269	-0.04865766397331338	72.44443853861021	0	0.9399999999999999	0	44.99999054147911	-9.999999988573329	0	59.99989492935552	1.047195717367904	-4.999999851047217	0	0	44.99999054147911	-9.999999988573329	0	59.99989492935552	1.047195717367904	-4.999999851047217	0	0	0.02274126846194253	-0.02357102955046262	0.02557548210142738	-0.4135799104380333	-0.07877848038049788	-0.4199530486006957	0.5704866530578929	0.5264666081861586	0	0	-0.3762680776788416	-0.1205718310588107	-0.4133370170484792	0.5837763440485494	0.5676185708995356	0	0
1747398479.123803	-0.01593424762758841	-0.06142793330151568	72.45425697608772	0	0.9399999999999999	0	44.99999100964231	-9.999999988573329	0	59.99990442093285	1.04719588302718	-4.999999851047217	0	0	44.99999100964231	-9.999999988573329	0	59.99990442093285	1.04719588302718	-4.999999851047217	0	0	0.05831673420782709	-0.02435746333921542	0.01465974524985261	-0.430901795892443	-0.07784927542088672	-0.4230867536661326	0.5599692232280757	0.5266683913795809	0	0	-0.3946880755220971	-0.1133135144702751	-0.4242798089661435	0.5765800385277041	0.57251524795147	0	0
1747398479.133803	-0.003842058480456546	-0.0637701636640379	72.44411790070885	0	0.9399999999999999	0	44.99999145056123	-9.999999988573329	0	59.9999134560394	1.047196040719538	-4.999999851047217	0	0	44.99999145056123	-9.999999988573329	0	59.9999134560394	1.047196040719538	-4.999999851047217	0	0	0.04191966308656917	-0.013899751413084	0.01445162741154761	-0.4191540387128654	-0.07594138327574787	-0.4072960272818734	0.5628288347095247	0.5254678959907569	0	0	-0.3791973856009392	-0.1173121186519781	-0.4290686457387895	0.5764662838752511	0.5694637774599495	0	0
1747398479.143803	-0.007429266563872312	-0.06168992260047162	72.44538851620892	0	0.9399999999999999	0	44.9999918760595	-9.999999988573329	0	59.99992226719217	1.047196194503164	-4.999999851047217	0	0	44.9999918760595	-9.999999988573329	0	59.99992226719217	1.047196194503164	-4.999999851047217	0	0	0.04080414249304044	-0.01653837278310049	0.01386976806473389	-0.4164792547692856	-0.07697841730500379	-0.4095910867483443	0.5649002813485654	0.5253742506073623	0	0	-0.3770473816352103	-0.1169120028737218	-0.4296018195354935	0.580454918880947	0.5714794361919417	0	0
1747398479.153803	-0.006651413422401544	-0.0678709071575148	72.4420189383351	0	0.9399999999999999	0	44.99999228181093	-9.999999988573329	0	59.99993076242149	1.047196342772887	-4.999999851047217	0	0	44.99999228181093	-9.999999988573329	0	59.99993076242149	1.047196342772887	-4.999999851047217	0	0	0.06108807784486467	-0.01692191657114745	0.01522830839623967	-0.4306765335817418	-0.07072731289398788	-0.4008029355079161	0.5627844615514049	0.5188609540736497	0	0	-0.3944154458983556	-0.1192161499073783	-0.427770097798574	0.5794487405907484	0.5655424758391284	0	0
1747398479.163803	-0.007536539271417167	-0.07296910773758927	72.43682719500104	0	0.9399999999999999	0	44.9999926679221	-9.999999988573329	0	59.99993893605189	1.047196485429649	-4.999999851047217	0	0	44.9999926679221	-9.999999988573329	0	59.99993893605189	1.047196485429649	-4.999999851047217	0	0	0.04930740974434354	-0.01669684016444607	0.02014342062579996	-0.7433814815129697	-0.1628273150526218	-0.7568739825022713	1.072607005041463	1.041248029237801	0	0	-0.7116650246051692	-0.207624351944568	-0.7878213318147029	1.084692053573056	1.086807718690934	0	0
1747398479.173803	-0.009894117722733525	-0.06229273883836717	72.4430554353379	0	0.9399999999999999	0	44.99999336682937	-9.999999988573329	0	59.99995405022484	1.047196749221731	-4.999999851047217	0	0	44.99999336682937	-9.999999988573329	0	59.99995405022484	1.047196749221731	-4.999999851047217	0	0	0.04083086239141902	-0.02156318400569847	0.01546209271600272	-0.415517912162376	-0.07372592620921746	-0.4074737466943588	0.5658172309880037	0.5307191936998494	0	0	-0.3731046415944789	-0.1172798260217174	-0.4315744017962173	0.5762339192873861	0.573863728720943	0	0
1747398479.183803	-0.005218589748942413	-0.05175675675813959	72.44481412427552	0	0.9399999999999999	0	44.99999370190827	-9.999999988573329	0	59.99996136705767	1.047196876924554	-4.999999851047217	0	0	44.99999370190827	-9.999999988573329	0	59.99996136705767	1.047196876924554	-4.999999851047217	0	0	0.01624238531096893	-0.01522489658702384	0.01236820527851539	-0.7365802957061397	-0.1689226505732163	-0.7474778492661516	1.073361573242808	1.03155726993808	0	0	-0.6888851673374675	-0.2046713343968993	-0.7703329182832195	1.09275651572842	1.067973574193282	0	0
